<svg width="1920" height="11850" viewBox="0 0 1920 11850" fill="none" xmlns="http://www.w3.org/2000/svg">
<path opacity="0.2" d="M-23.2445 12008.5L-22.4092 12004.9C499.629 12141 472.088 12475.5 442.061 12830C419.711 13095.4 397.256 13369.7 598.631 13583.7C760.332 13755.6 891.03 13691.2 1042.34 13616.3C1151.9 13562.6 1275.42 13501.3 1429.53 13523.7C1605.94 13549.5 1794.03 13681.2 2004.15 13926.5L2001.34 13928.9C1792 13684.5 1604.57 13553.2 1429.35 13527.6C1276.96 13505.3 1153.31 13566.1 1044.28 13619.7C891.382 13695 759.748 13760.1 595.826 13586.1C393.012 13370.8 415.873 13095.9 438.096 12830C467.971 12477.2 495.764 12143.7 -23.2445 12008.5Z" fill="#ABABAB"/>
<path opacity="0.2" d="M1981 867.5C1548.17 883.333 628.6 1085.8 413 1769C197.4 2452.2 907.833 3190 1290 3473.5C1701.17 3744.83 2276.8 4850 1290 7100C56.5 9912.5 222.5 10127 1290 11559L2083.5 12588C1816.83 12623.3 1309.1 12893.4 1411.5 13691C1513.9 14488.6 416.833 15413 -144.5 15775.5" stroke="#ABABAB" stroke-width="2"/>
<path opacity="0.2" d="M1981.45 1C1548.43 17.7541 628.447 231.996 412.75 954.928C197.053 1677.86 907.806 2458.57 1290.14 2758.56C1701.5 3045.67 2277.39 4215.11 1290.14 6595.96C56.0902 9572.03 222.165 9799 1290.14 11314.3L2084 12403.1C1817.21 12440.5 1309.25 12726.3 1411.7 13570.3C1514.14 14414.3 416.585 15392.4 -145 15776" stroke="#ABABAB" stroke-width="2"/>
<path opacity="0.2" d="M98 1228C530.833 1243.83 1450.4 1446.3 1666 2129.5C1881.6 2812.7 1171.17 3550.5 789 3834C377.833 4105.33 -197.8 5210.5 789 7460.5C2022.5 10273 1856.5 10487.5 789 11919.5" stroke="#ABABAB" stroke-width="2"/>
</svg>
